# xmcd CD database file generated by OrangeCD 6.5
#
# Track frame offsets:
#	150
#	1194
#	35381
#	56242
#	95980
#	119549
#	148850
#	181443
#	206994
#	232645
#
# Disc length: 3319 seconds
#
# Revision: 0
# Processed by: cddbd v1.5.2PL0 Copyright (c) Steve Scherf et al.
# Submitted via: OrangeCD 6.5
#
DISCID=8f0cf50a
DTITLE=Johnny Winter - Remembrance Volume 1
DYEAR=2015
DGENRE=
TTITLE0=Introduction
TTITLE1=Sen-sa-shun
TTITLE2=Messin' With The Kid
TTITLE3=Mean Mistreater
TTITLE4=Boot Hill
TTITLE5=Stranger Blues
TTITLE6=You Keep Sayin' That You're Leaving
TTITLE7=One Step At A Time
TTITLE8=Crossroads
TTITLE9=Rollin' And Tumblin' (Acoustic)
EXTD=
EXTT0=
EXTT1=
EXTT2=
EXTT3=
EXTT4=
EXTT5=
EXTT6=
EXTT7=
EXTT8=
EXTT9=
PLAYORDER=
